<?xml version="1.0" standalone="no"?>
<!DOCTYPE svg PUBLIC "-//W3C//DTD SVG 20010904//EN"
 "http://www.w3.org/TR/2001/REC-SVG-20010904/DTD/svg10.dtd">
<svg version="1.0" xmlns="http://www.w3.org/2000/svg"
 width="1280.000000pt" height="640.000000pt" viewBox="0 0 1280.000000 640.000000"
 preserveAspectRatio="xMidYMid meet">
<metadata>
Created by potrace 1.15, written by Peter Selinger 2001-2017
</metadata>
<g transform="translate(0.000000,640.000000) scale(0.100000,-0.100000)"
fill="#000000" stroke="none">
<path d="M574 4578 c-27 -18 -63 -55 -81 -83 -64 -100 -53 -93 -110 -66 -28
13 -58 21 -69 19 -27 -5 -62 -63 -70 -116 -11 -75 -17 -82 -80 -82 -30 0 -69
-6 -88 -14 -39 -16 -76 -60 -76 -91 0 -15 53 -75 168 -191 183 -183 283 -299
385 -445 79 -114 168 -279 207 -387 l29 -80 -62 -22 c-98 -36 -156 -68 -208
-117 -93 -87 -86 -161 20 -215 29 -15 80 -33 111 -39 52 -10 63 -17 105 -65
65 -76 128 -106 233 -112 72 -4 84 -7 94 -26 31 -61 89 -98 190 -120 19 -4 43
-30 84 -88 168 -240 406 -387 705 -434 126 -20 407 -15 544 10 156 28 338 77
396 106 156 79 321 217 423 355 141 188 219 457 232 799 8 192 22 248 88 341
56 78 148 154 276 229 52 31 102 59 110 64 11 7 -28 31 -151 92 l-166 83 -18
54 c-77 226 -333 386 -593 370 -172 -10 -228 -44 -375 -227 -307 -383 -522
-554 -793 -632 -69 -20 -100 -23 -254 -22 -162 0 -181 2 -256 27 -226 75 -406
262 -573 596 -55 108 -131 288 -181 426 -19 50 -42 100 -53 113 -31 33 -83 30
-143 -10z"/>
<path d="M12083 4588 c-11 -13 -39 -75 -63 -138 -223 -603 -443 -896 -747
-996 -83 -27 -97 -29 -258 -29 -147 0 -181 3 -249 23 -269 78 -484 248 -783
620 -75 94 -131 154 -162 173 -227 144 -601 50 -759 -191 -21 -33 -47 -84 -57
-113 l-18 -54 -166 -83 c-123 -61 -162 -85 -151 -92 8 -5 57 -33 109 -64 125
-72 212 -145 272 -224 69 -91 86 -156 93 -352 13 -330 84 -582 221 -779 94
-136 273 -287 434 -369 58 -29 240 -78 396 -106 137 -25 418 -30 544 -10 299
47 537 194 706 435 40 58 64 83 83 87 101 22 159 59 190 120 10 19 22 22 94
26 105 6 168 36 233 112 42 48 53 55 105 65 31 6 82 24 111 39 106 54 113 128
20 215 -52 49 -110 81 -208 117 l-62 22 26 72 c94 261 270 511 585 831 118
119 178 187 178 201 0 30 -37 74 -76 90 -19 8 -58 14 -88 14 -63 0 -69 7 -80
82 -8 53 -43 111 -70 116 -11 2 -41 -6 -69 -19 -57 -27 -46 -34 -110 66 -63
98 -176 145 -224 93z"/>
<path d="M5855 4234 c-226 -55 -450 -258 -511 -463 -105 -356 100 -884 492
-1261 160 -154 348 -278 501 -330 l68 -23 80 32 c277 111 541 337 737 630 225
337 312 689 234 952 -52 175 -239 365 -431 439 -79 31 -233 34 -312 7 -96 -34
-202 -114 -281 -212 l-32 -40 -32 40 c-77 96 -173 169 -269 207 -53 20 -198
33 -244 22z"/>
</g>
</svg>
