<?xml version="1.0" standalone="no"?>
<!DOCTYPE svg PUBLIC "-//W3C//DTD SVG 20010904//EN"
 "http://www.w3.org/TR/2001/REC-SVG-20010904/DTD/svg10.dtd">
<svg version="1.0" xmlns="http://www.w3.org/2000/svg"
 width="1280.000000pt" height="1160.000000pt" viewBox="0 0 1280.000000 1160.000000"
 preserveAspectRatio="xMidYMid meet">
<metadata>
Created by potrace 1.15, written by Peter Selinger 2001-2017
</metadata>
<g transform="translate(0.000000,1160.000000) scale(0.100000,-0.100000)"
fill="#000000" stroke="none">
<path d="M7163 11586 c-148 -48 -272 -200 -309 -378 -28 -131 1 -362 65 -521
32 -80 105 -207 155 -271 l31 -38 95 6 c677 47 964 137 1076 338 28 50 29 59
29 173 0 96 -4 127 -18 156 -28 56 -84 106 -146 130 -78 31 -260 37 -401 15
-57 -9 -104 -15 -105 -14 -1 2 -10 28 -20 58 -47 146 -155 289 -251 331 -59
27 -146 33 -201 15z"/>
<path d="M5533 9591 c-150 -51 -221 -164 -229 -361 l-4 -95 -67 -6 c-264 -25
-421 -151 -441 -357 -26 -254 95 -415 358 -477 109 -26 344 -31 500 -11 165
21 342 56 356 70 12 11 54 222 76 381 7 50 12 173 12 275 -1 156 -5 198 -23
265 -52 194 -149 293 -315 324 -85 16 -163 13 -223 -8z"/>
<path d="M8440 9130 c-85 -15 -171 -86 -213 -178 -19 -40 -22 -65 -22 -162 0
-96 4 -126 24 -180 33 -91 96 -185 180 -268 67 -66 76 -71 129 -79 103 -15
320 -8 397 11 189 49 305 162 335 328 12 64 1 158 -24 206 -51 100 -202 145
-374 112 l-50 -9 -79 78 c-111 111 -209 157 -303 141z"/>
<path d="M6824 7151 c-159 -54 -270 -177 -334 -368 -84 -255 -34 -635 138
-1037 l46 -109 191 7 c598 21 988 134 1228 356 134 124 190 222 206 356 18
162 -10 292 -84 392 -108 148 -333 223 -624 209 l-113 -5 -71 53 c-150 115
-285 165 -436 164 -63 0 -113 -6 -147 -18z"/>
<path d="M6820 5316 c0 -2 96 -152 214 -332 117 -181 212 -331 210 -332 -1 -2
-110 95 -241 215 -131 121 -254 234 -274 251 l-37 32 110 -427 c96 -377 108
-432 98 -458 -83 -217 -116 -334 -147 -520 -25 -155 -26 -561 0 -725 41 -261
112 -514 209 -740 298 -696 787 -1160 1466 -1389 91 -31 250 -73 325 -87 20
-3 41 -11 45 -18 4 -6 46 -166 94 -356 l87 -345 -4 190 c-3 105 -8 262 -12
349 l-6 159 24 -6 c13 -4 58 -7 99 -7 l76 0 208 -365 c115 -201 210 -365 212
-365 3 0 -37 116 -188 548 -39 112 -68 205 -66 207 2 3 60 12 129 21 460 59
859 171 1204 338 276 134 471 270 666 465 112 113 227 247 218 255 -2 2 -63
15 -136 29 -669 134 -1135 533 -1356 1162 -71 201 -106 356 -142 625 -27 197
-41 259 -82 373 -85 238 -297 527 -514 702 -405 327 -896 404 -1509 236 l-143
-40 -326 141 c-179 77 -366 157 -415 179 -91 40 -96 42 -96 35z"/>
<path d="M5623 5089 l-432 -190 -48 24 c-76 39 -185 75 -296 99 -135 29 -410
31 -562 4 -317 -56 -556 -166 -784 -363 -213 -184 -378 -412 -467 -651 -39
-101 -62 -206 -89 -397 -53 -375 -115 -598 -230 -830 -173 -350 -418 -601
-740 -756 -178 -86 -357 -136 -599 -168 l-130 -17 145 -144 c526 -527 1156
-832 1963 -949 76 -11 141 -22 143 -25 2 -2 -43 -159 -101 -349 -59 -191 -106
-350 -106 -354 0 -4 90 148 200 337 l200 344 89 1 88 0 7 -74 c3 -41 7 -137 7
-215 1 -78 4 -190 8 -251 l6 -110 58 290 c32 160 63 311 68 336 l10 46 67 12
c416 75 873 331 1256 701 306 296 518 653 636 1073 101 355 150 742 129 1025
-19 272 -74 466 -185 648 l-45 75 44 107 c76 182 149 423 192 640 9 46 15 85
13 87 -2 1 -91 -78 -198 -177 -276 -254 -335 -306 -322 -283 7 11 111 161 231
333 121 171 217 312 213 312 -4 0 -201 -86 -439 -191z"/>
<path d="M12580 2976 c-389 -236 -699 -540 -924 -908 -72 -119 -109 -188 -100
-188 4 0 83 20 176 45 397 105 760 178 996 201 73 7 73 7 67 32 -42 169 -87
455 -110 701 -8 90 -16 165 -17 166 -2 2 -41 -20 -88 -49z"/>
<path d="M115 2938 c-12 -71 -115 -841 -113 -843 19 -13 369 -99 563 -139 256
-52 660 -114 672 -102 5 5 -98 154 -216 311 -198 263 -443 526 -606 648 -86
64 -251 157 -280 157 -8 0 -16 -14 -20 -32z"/>
</g>
</svg>
